<svg xmlns="http://www.w3.org/2000/svg" width="28.023" height="26.979" viewBox="0 0 28.023 26.979">
  <path id="Path_1635" data-name="Path 1635" d="M151.342,68.62a.535.535,0,0,0-.036-.178c-.006-.015-.011-.029-.018-.044s-.009-.026-.015-.037l-3.17-5.548a.531.531,0,0,0-.461-.265H127.619a.53.53,0,0,0-.461.265l-3.17,5.547c-.007.012-.009.025-.015.037s-.012.029-.018.044h0a.534.534,0,0,0-.036.178v2.635a3.816,3.816,0,0,0,1.338,2.9V88.395a.531.531,0,0,0,.531.531h23.685a.531.531,0,0,0,.531-.531V74.155a3.816,3.816,0,0,0,1.338-2.9V68.619Zm-1.444-.526h-5.282l-1.349-4.487h4.067Zm-12.8-4.487v4.487h-5.346l1.349-4.487Zm5.058,0,1.35,4.487h-5.346V63.606ZM131.57,69.155H137.1v2.1a2.765,2.765,0,1,1-5.529,0Zm6.591,0h5.529v2.1a2.765,2.765,0,1,1-5.529,0Zm-10.234-5.548h4.067l-1.349,4.487h-5.282Zm-2.948,7.649v-2.1h5.529v2.1a2.765,2.765,0,1,1-5.529,0Zm17.45,16.611h-9.6V80.394h9.6Zm6.513,0h-5.452v-8a.531.531,0,0,0-.531-.531H132.3a.53.53,0,0,0-.531.531v8h-5.452V74.8a3.809,3.809,0,0,0,4.723-1.613,3.816,3.816,0,0,0,6.589,0,3.816,3.816,0,0,0,6.591,0,3.809,3.809,0,0,0,4.723,1.613ZM147.517,74.02a2.767,2.767,0,0,1-2.764-2.765v-2.1h5.529v2.1a2.768,2.768,0,0,1-2.765,2.764Z" transform="translate(-123.619 -62.247)" fill="#fff" stroke="#fff" stroke-width="0.6"/>
</svg>
