<svg xmlns="http://www.w3.org/2000/svg" xmlns:xlink="http://www.w3.org/1999/xlink" width="142.143" height="145" viewBox="0 0 142.143 145">
  <defs>
    <filter id="noun-service-1970885" x="0" y="0" width="142.143" height="151.461" filterUnits="userSpaceOnUse">
      <feOffset dx="8" input="SourceAlpha"/>
      <feGaussianBlur stdDeviation="3.5" result="blur"/>
      <feFlood flood-opacity="0.569"/>
      <feComposite operator="in" in2="blur"/>
      <feComposite in="SourceGraphic"/>
    </filter>
  </defs>
  <g transform="matrix(1, 0, 0, 1, 0, 0)" filter="url(#noun-service-1970885)">
    <path id="noun-service-1970885-2" data-name="noun-service-1970885" d="M183.069,35a44.416,44.416,0,0,0-42.634,32.685,9.268,9.268,0,0,0-8.618,9.25v9.319a9.3,9.3,0,0,0,9.319,9.319h3.485a39.358,39.358,0,0,1-1.155-9.319V79.264c0-.513.04-1.016.059-1.525.034-.874.092-1.74.182-2.6q-.131,1.289-.182,2.6c.007,0,.011-.007.019-.008a39.554,39.554,0,0,1,79.049-.072.086.086,0,0,1,.023.008c.021.531.059,1.06.059,1.6v6.989a32.789,32.789,0,0,1-1.11,9.1c-.722,2.671-3.367,4.878-5.879,4.878H194.5a3.475,3.475,0,0,0-3.28-2.33h-6.989a3.487,3.487,0,0,0-3.494,3.495v2.33a3.487,3.487,0,0,0,3.494,3.495h6.989a3.475,3.475,0,0,0,3.28-2.33h21.181c5.449,0,9.774-4.335,10.721-9.455a9.274,9.274,0,0,0,7.918-9.182V76.934a9.268,9.268,0,0,0-8.618-9.25A44.417,44.417,0,0,0,183.072,35Zm0,9.319a34.92,34.92,0,0,0-34.945,34.945v6.989a34.8,34.8,0,0,0,9.769,24.211l-3.918,3.918A46.512,46.512,0,0,0,122.5,158.472v4.659a2.33,2.33,0,0,0,2.33,2.33H241.309a2.33,2.33,0,0,0,2.33-2.33v-4.659a46.51,46.51,0,0,0-31.479-44.091l-3.918-3.918a35.273,35.273,0,0,0,2.721-3.244h-6.01a30.308,30.308,0,0,1-52.172-20.967v-.441a13.6,13.6,0,0,0,4.368-2.4,21.943,21.943,0,0,0,5.142-6.179,45.782,45.782,0,0,0,3.472-8.978,40.164,40.164,0,0,0,6.912,2.621,39.364,39.364,0,0,0,20.786,0,40.168,40.168,0,0,0,6.912-2.621,45.791,45.791,0,0,0,3.472,8.978,21.946,21.946,0,0,0,5.142,6.179,13.639,13.639,0,0,0,4.368,2.4v.441a30.557,30.557,0,0,1-1.456,9.319h4.823a34.805,34.805,0,0,0,1.293-9.319V79.263a34.92,34.92,0,0,0-34.945-34.945ZM144.542,70.131c-.164.7-.3,1.41-.427,2.125C144.244,71.542,144.376,70.83,144.542,70.131Zm77.065.053c.139.59.246,1.193.36,1.793C221.858,71.376,221.746,70.776,221.608,70.184Zm-77.566,2.443q-.2,1.229-.332,2.485C143.8,74.276,143.9,73.446,144.042,72.627Zm78.053.008c.132.773.233,1.556.318,2.343Q222.289,73.8,222.1,72.635Zm.337,2.489c.087.829.142,1.664.178,2.508Q222.558,76.368,222.432,75.124ZM161.341,113.6A34.9,34.9,0,0,0,166,116.734l13.777,13.777-3.7,3.694-17.673-17.672Zm43.454,0,2.935,2.935-17.673,17.672-3.7-3.694,13.778-13.777A34.985,34.985,0,0,0,204.8,113.6Zm-28.406,6.939a34.381,34.381,0,0,0,13.36,0l-6.68,6.679Z" transform="translate(-120 -24.5)" fill="#767c85" opacity="0.61"/>
  </g>
</svg>
