<svg id="Group_2734" data-name="Group 2734" xmlns="http://www.w3.org/2000/svg" xmlns:xlink="http://www.w3.org/1999/xlink" width="74" height="64" viewBox="0 0 74 64">
  <defs>
    <clipPath id="clip-path">
      <rect id="Rectangle_547" data-name="Rectangle 547" width="74" height="64" fill="#9fa6b3"/>
    </clipPath>
  </defs>
  <path id="Path_1642" data-name="Path 1642" d="M489.309,251.883l-.508-1.113-.508,1.113-1.215.139.9.827-.243,1.2,1.065-.6,1.065.6-.243-1.2.9-.827Z" transform="translate(-451.802 -232.699)" fill="#9fa6b3"/>
  <path id="Path_1643" data-name="Path 1643" d="M561.309,269.321l-.508-1.113-.508,1.113-1.215.139.9.827-.243,1.2,1.065-.6,1.065.6-.244-1.2.9-.827Z" transform="translate(-518.588 -248.88)" fill="#9fa6b3"/>
  <path id="Path_1644" data-name="Path 1644" d="M417.309,269.321l-.508-1.113-.508,1.113-1.215.139.9.827-.243,1.2,1.065-.6,1.065.6-.243-1.2.9-.827Z" transform="translate(-385.017 -248.88)" fill="#9fa6b3"/>
  <path id="Path_1645" data-name="Path 1645" d="M487.737,595.132l1.065-.6,1.065.6-.244-1.2.9-.827-1.215-.139-.508-1.113-.508,1.113-1.215.139.9.827Z" transform="translate(-451.802 -549.203)" fill="#9fa6b3"/>
  <path id="Path_1646" data-name="Path 1646" d="M559.737,577.694l1.065-.6,1.065.6-.243-1.2.9-.827-1.215-.139-.508-1.113-.508,1.113-1.215.139.9.827Z" transform="translate(-518.588 -533.022)" fill="#9fa6b3"/>
  <path id="Path_1647" data-name="Path 1647" d="M415.737,577.694l1.065-.6,1.065.6-.243-1.2.9-.827-1.215-.139-.508-1.113-.508,1.113-1.215.139.9.827Z" transform="translate(-385.017 -533.022)" fill="#9fa6b3"/>
  <path id="Path_1648" data-name="Path 1648" d="M770.546,586.722l1.171-.662,1.171.662-.268-1.319.992-.909-1.337-.153-.558-1.224-.558,1.224-1.337.153.992.909Z" transform="translate(-714.113 -541.133)" fill="#9fa6b3"/>
  <path id="Path_1649" data-name="Path 1649" d="M202.248,586.06l1.171.662-.268-1.319.992-.909-1.337-.153-.558-1.224-.558,1.224-1.337.153.992.909-.268,1.319Z" transform="translate(-185.854 -541.133)" fill="#9fa6b3"/>
  <path id="Path_1650" data-name="Path 1650" d="M771.159,256.944l-1.337.153.992.909-.268,1.319,1.171-.662,1.171.662-.268-1.319.992-.909-1.337-.153-.558-1.224Z" transform="translate(-714.113 -237.308)" fill="#9fa6b3"/>
  <path id="Path_1651" data-name="Path 1651" d="M202.807,256.944l-.558-1.224-.558,1.224-1.337.153.992.909-.268,1.319,1.171-.662,1.171.662-.268-1.319.992-.909Z" transform="translate(-185.854 -237.308)" fill="#9fa6b3"/>
  <g id="Group_2733" data-name="Group 2733">
    <g id="Group_2732" data-name="Group 2732" clip-path="url(#clip-path)">
      <path id="Path_1652" data-name="Path 1652" d="M235.627,181.162l-.748.808a1.937,1.937,0,0,1,.366.6.933.933,0,0,1,.012.584,1.626,1.626,0,0,1-.389.624,1.169,1.169,0,0,1-1.117.414,2.839,2.839,0,0,1-1.343-.773l-.368-.338a2.648,2.648,0,0,1-.87-1.294,1.221,1.221,0,0,1,.344-1.147,1.237,1.237,0,0,1,.864-.472,1.608,1.608,0,0,1,.941.363l.748-.808a2.7,2.7,0,0,0-1.064-.5,2,2,0,0,0-1.1.079,2.658,2.658,0,0,0-1.046.731,2.48,2.48,0,0,0-.65,1.236,2.36,2.36,0,0,0,.152,1.35,3.611,3.611,0,0,0,.934,1.284l.361.332a3.694,3.694,0,0,0,1.356.829,2.356,2.356,0,0,0,1.35.053,2.436,2.436,0,0,0,1.17-.733,2.774,2.774,0,0,0,.666-1.115,1.993,1.993,0,0,0,.008-1.108,2.5,2.5,0,0,0-.575-1" transform="translate(-213.368 -166.157)" fill="#9fa6b3"/>
      <path id="Path_1653" data-name="Path 1653" d="M289.746,125l-1.031-1.567,2.128-1.389-.478-.727-2.128,1.389-.926-1.407,2.468-1.611-.49-.744-2.468,1.611-.927.6,3.412,5.187.68-.443,2.736-1.786-.487-.741Z" transform="translate(-265.031 -110.297)" fill="#9fa6b3"/>
      <path id="Path_1654" data-name="Path 1654" d="M364.05,98.842l-2.176-1.969a1.882,1.882,0,0,0,.569-.9,1.792,1.792,0,0,0-.07-1.077,1.7,1.7,0,0,0-1.02-1.112,2.574,2.574,0,0,0-1.732.1l-2.08.735,2.082,5.844,1.044-.369-.8-2.239,1.117-.395,1.964,1.829,1.119-.4Zm-2.732-2.73a1.192,1.192,0,0,1-.707.543l-1.04.366-.688-1.93,1.036-.366a1.206,1.206,0,0,1,.906-.031,1.011,1.011,0,0,1,.521.624.966.966,0,0,1-.028.794" transform="translate(-331.448 -86.869)" fill="#9fa6b3"/>
      <path id="Path_1655" data-name="Path 1655" d="M440.922,74.276l-1.927.2-3,.309.092.885,1.905-.2.549,5.283,1.1-.113-.549-5.283,1.927-.2Z" transform="translate(-404.174 -68.878)" fill="#9fa6b3"/>
      <path id="Path_7145" data-name="Path 7145" d="M0,0l6.2,0v1.1l-6.2,0Z" transform="matrix(0.077, -0.997, 0.997, 0.077, 38.007, 11.733)" fill="#9fa6b3"/>
      <path id="Path_1656" data-name="Path 1656" d="M552.894,81.885l2.776.69.216-.864-2.775-.69-1.075-.267-1.508,6.016,1.075.267.636-2.537,2.427.6.215-.86-2.427-.6Z" transform="translate(-510.351 -74.885)" fill="#9fa6b3"/>
      <path id="Path_7146" data-name="Path 7146" d="M0,.022l6.2.009,0,1.1-6.2-.009Z" transform="translate(44.595 13.182) rotate(-66.438)" fill="#9fa6b3"/>
      <path id="Path_1657" data-name="Path 1657" d="M640.231,126.83l1.032-1.567,2.127,1.39.479-.726-2.127-1.39.927-1.407,2.467,1.612.491-.744-2.467-1.612-.926-.6-3.415,5.185.679.444,2.735,1.787.488-.74Z" transform="translate(-592.197 -112.93)" fill="#9fa6b3"/>
      <path id="Path_1658" data-name="Path 1658" d="M697.66,173.194a2.873,2.873,0,0,0-.725-1.321l-.5-.543-.751-.809-4.571,4.208.331.358.893.964a3.011,3.011,0,0,0,1.287.851,2.521,2.521,0,0,0,1.438.03,3.318,3.318,0,0,0,1.384-.8l.223-.205a3.283,3.283,0,0,0,.9-1.31,2.5,2.5,0,0,0,.092-1.426m-.915.563a2.338,2.338,0,0,1-.828,1.354l-.23.212a2.362,2.362,0,0,1-1.423.711,1.592,1.592,0,0,1-1.279-.584l-.473-.51,3.262-3,.5.541a1.533,1.533,0,0,1,.467,1.28" transform="translate(-640.673 -158.127)" fill="#9fa6b3"/>
      <path id="Path_1659" data-name="Path 1659" d="M237.6,631.245a2.42,2.42,0,0,0,.684,1.2,2.791,2.791,0,0,0,1.089.711,2.015,2.015,0,0,0,1.111.056,2.514,2.514,0,0,0,1.028-.528l-.778-.779a1.952,1.952,0,0,1-.618.338.946.946,0,0,1-.587-.014,1.638,1.638,0,0,1-.609-.414,1.158,1.158,0,0,1-.367-1.129,2.821,2.821,0,0,1,.834-1.3l.355-.351a2.659,2.659,0,0,1,1.336-.809,1.439,1.439,0,0,1,1.571,1.272,1.592,1.592,0,0,1-.405.92l.778.779a2.68,2.68,0,0,0,.548-1.037,1.981,1.981,0,0,0-.031-1.1,2.643,2.643,0,0,0-.688-1.072,2.494,2.494,0,0,0-1.212-.7,2.388,2.388,0,0,0-1.361.092,3.627,3.627,0,0,0-1.329.874l-.349.346a3.676,3.676,0,0,0-.89,1.313,2.329,2.329,0,0,0-.112,1.341" transform="translate(-220.208 -581.629)" fill="#9fa6b3"/>
      <path id="Path_1660" data-name="Path 1660" d="M293.412,670.205l2.78,1.717.469-.753-2.529-1.563.992-1.592,2.162,1.336.46-.738-2.162-1.336.89-1.43,2.507,1.549.471-.757-2.507-1.549-.941-.581-3.282,5.269Z" transform="translate(-271.359 -616.209)" fill="#9fa6b3"/>
      <path id="Path_1661" data-name="Path 1661" d="M367.556,697.547a2.554,2.554,0,0,0-1.421-.99l-2.089-.707-2.005,5.87,1.049.355.768-2.25,1.121.379.4,2.647,1.125.382.02-.052-.482-2.89a1.867,1.867,0,0,0,1-.353,1.776,1.776,0,0,0,.615-.888,1.687,1.687,0,0,0-.107-1.5m-.959,1.2a.96.96,0,0,1-.515.6,1.191,1.191,0,0,1-.893-.009l-1.044-.355.663-1.938,1.04.353a1.2,1.2,0,0,1,.729.534,1,1,0,0,1,.02.813" transform="translate(-335.619 -645.271)" fill="#9fa6b3"/>
      <path id="Path_1662" data-name="Path 1662" d="M446.006,721.782l1.1.108.524-5.285,1.928.189.088-.886-1.928-.189-3-.3-.088.886,1.907.187Z" transform="translate(-412.175 -663.422)" fill="#9fa6b3"/>
      <path id="Path_7147" data-name="Path 7147" d="M0,0h1.1l0,6.2H.006Z" transform="translate(37.933 52.325) rotate(-4.26)" fill="#9fa6b3"/>
      <path id="Path_1663" data-name="Path 1663" d="M550.26,712.2l-.609-2.544,2.433-.578-.206-.862-2.433.578-.422-1.76,2.783-.661-.207-.866-2.783.661-1.077.256,1.445,6.032Z" transform="translate(-507.766 -654.224)" fill="#9fa6b3"/>
      <path id="Path_7148" data-name="Path 7148" d="M.021,0l1.1,0,.009,6.2-1.1,0Z" transform="translate(44.283 50.999) rotate(-22.421)" fill="#9fa6b3"/>
      <path id="Path_1664" data-name="Path 1664" d="M636.972,669.022l2.781-1.716-.468-.753-2.53,1.561-.991-1.593,2.163-1.335-.46-.738-2.163,1.335-.89-1.43,2.508-1.548-.471-.757-2.508,1.548-.941.581,3.279,5.271Z" transform="translate(-586.807 -613.927)" fill="#9fa6b3"/>
      <path id="Path_1665" data-name="Path 1665" d="M690.456,631.695a3.274,3.274,0,0,0-.86-1.343l-.215-.212a3.286,3.286,0,0,0-1.353-.842,2.54,2.54,0,0,0-1.436-.028,2.894,2.894,0,0,0-1.294.778l-.519.526-.779.783,4.422,4.363.342-.344.929-.931a3.006,3.006,0,0,0,.8-1.319,2.487,2.487,0,0,0-.033-1.431m-1.4,2.126-.491.493-3.155-3.114.519-.523a1.544,1.544,0,0,1,1.265-.521,2.355,2.355,0,0,1,1.395.765l.221.218a2.335,2.335,0,0,1,.775,1.385,1.571,1.571,0,0,1-.53,1.3" transform="translate(-634.083 -583.447)" fill="#9fa6b3"/>
      <path id="Path_1666" data-name="Path 1666" d="M367.5,401.625l-1.416,4.068h2.832Z" transform="translate(-339.368 -372.433)" fill="#9fa6b3"/>
      <path id="Path_1667" data-name="Path 1667" d="M741.729,394.565a1.615,1.615,0,0,0,.455-1.213,1.942,1.942,0,0,0-.2-.876,1.519,1.519,0,0,0-.616-.641,2.062,2.062,0,0,0-1.047-.242h-2.053v3.414h2.053a1.948,1.948,0,0,0,1.406-.443" transform="translate(-684.393 -363.13)" fill="#9fa6b3"/>
      <path id="Path_1668" data-name="Path 1668" d="M67.787,22.842a32.168,32.168,0,0,0-61.573,0H0l.58,1.217H73.418L74,22.842Zm-41.922,0a14.46,14.46,0,0,1,22.268,0Zm23.106,0a15.117,15.117,0,0,0-23.945,0H23.741a16.157,16.157,0,0,1,26.517,0Zm2.728,0a17.364,17.364,0,0,0-29.4,0H9.254a29.266,29.266,0,0,1,55.489,0Zm13.736,0a29.922,29.922,0,0,0-56.87,0H7.472a30.963,30.963,0,0,1,59.053,0Z" fill="#9fa6b3"/>
      <path id="Path_1669" data-name="Path 1669" d="M85.655,342.99h-72l3.372,7.069-3.374,7.069H85.655l-3.374-7.069ZM35.018,355.02H33.253v-4.4h-4.4v4.4H27.082V345.1h1.773v4.115h4.4V345.1h1.765Zm8.477,0-.793-2.276H38.878l-.795,2.276H36.229l3.757-9.922H41.58l3.77,9.922Zm4.97-2.152a1.871,1.871,0,0,0,1.7.857,2.651,2.651,0,0,0,1.16-.22,1.516,1.516,0,0,0,.677-.648,3.078,3.078,0,0,0,.311-1.079h1.767a4.012,4.012,0,0,1-.558,1.758,3.218,3.218,0,0,1-1.318,1.193,4.47,4.47,0,0,1-2.038.43,3.889,3.889,0,0,1-2.135-.578,3.746,3.746,0,0,1-1.4-1.638,5.863,5.863,0,0,1-.493-2.488v-.783a5.772,5.772,0,0,1,.5-2.488,3.8,3.8,0,0,1,1.43-1.642,4.007,4.007,0,0,1,2.165-.58,4.273,4.273,0,0,1,2,.434,3.2,3.2,0,0,1,1.29,1.206,4.333,4.333,0,0,1,.565,1.788H52.32a2.546,2.546,0,0,0-.591-1.5,2.314,2.314,0,0,0-3.223.342,4.22,4.22,0,0,0-.585,2.423v.8a4.526,4.526,0,0,0,.543,2.414m9.156,0a1.865,1.865,0,0,0,1.7.857,2.644,2.644,0,0,0,1.16-.22,1.505,1.505,0,0,0,.677-.648,3.077,3.077,0,0,0,.313-1.079h1.765a3.983,3.983,0,0,1-.558,1.758,3.226,3.226,0,0,1-1.316,1.193,4.486,4.486,0,0,1-2.04.43,3.889,3.889,0,0,1-2.135-.578,3.742,3.742,0,0,1-1.4-1.638,5.863,5.863,0,0,1-.493-2.488v-.783a5.771,5.771,0,0,1,.5-2.488,3.8,3.8,0,0,1,1.43-1.642,4.01,4.01,0,0,1,2.167-.58,4.27,4.27,0,0,1,2,.434,3.2,3.2,0,0,1,1.29,1.206,4.27,4.27,0,0,1,.565,1.788H61.476a2.561,2.561,0,0,0-.593-1.5,2.314,2.314,0,0,0-3.223.342,4.221,4.221,0,0,0-.585,2.423v.8a4.5,4.5,0,0,0,.545,2.414M71.8,349.924a2.74,2.74,0,0,1-1.246,1.062,4.749,4.749,0,0,1-1.966.369H66.532v3.665H64.76V345.1h3.825a4.384,4.384,0,0,1,1.953.406,2.919,2.919,0,0,1,1.255,1.125,3.377,3.377,0,0,1,0,3.295" transform="translate(-12.654 -318.059)" fill="#9fa6b3"/>
      <path id="Path_1670" data-name="Path 1670" d="M73.418,549.51H.58L0,550.727H6.213a32.168,32.168,0,0,0,61.573,0H74Zm-25.285,1.217a14.461,14.461,0,0,1-22.268,0Zm-23.106,0a15.117,15.117,0,0,0,23.945,0h1.287a16.157,16.157,0,0,1-26.517,0Zm-2.728,0a17.364,17.364,0,0,0,29.4,0H64.746a29.268,29.268,0,0,1-55.491,0ZM37,572.369A30.965,30.965,0,0,1,7.472,550.727H8.565a29.922,29.922,0,0,0,56.87,0h1.09A30.962,30.962,0,0,1,37,572.369" transform="translate(0 -509.568)" fill="#9fa6b3"/>
    </g>
  </g>
</svg>
