<svg xmlns="http://www.w3.org/2000/svg" width="64" height="64" viewBox="0 0 64 64">
  <g id="noun-customer-review-4603591" transform="translate(-0.101 0)">
    <path id="Path_7153" data-name="Path 7153" d="M260.634,315.177l-7.52-1.143-3.373-7.181h0a.969.969,0,0,0-1.764,0l-3.373,7.181-7.521,1.154a.959.959,0,0,0-.553,1.618l5.476,5.6-1.289,7.947a.97.97,0,0,0,1.425.969l6.716-3.722,6.716,3.722A.973.973,0,0,0,257,330.3l-1.289-7.937,5.476-5.6a.925.925,0,0,0-.553-1.58Zm-3.6,1.415Zm-16.359,0Zm3.073,4.827Zm12.784-2.646Z" transform="translate(-216.777 -268.448)" fill="#9fa6b3"/>
    <path id="Path_7154" data-name="Path 7154" d="M98.09,368.016a.969.969,0,0,0-1.764,0l-2.471,5.253-5.515.843a.969.969,0,0,0-.553,1.628l4.022,4.119-.969,5.815a.969.969,0,0,0,1.425.969L97.208,384l4.923,2.723a.975.975,0,0,0,1.434-1.008L102.6,379.9l4.022-4.119a.969.969,0,0,0-.552-1.628l-5.505-.882Z" transform="translate(-82.424 -322.837)" fill="#9fa6b3"/>
    <path id="Path_7155" data-name="Path 7155" d="M456.9,374.63a.968.968,0,0,0-.775-.649l-5.563-.863-2.471-5.272a.969.969,0,0,0-1.763,0l-2.471,5.272-5.515.843a.969.969,0,0,0-.552,1.628l4.022,4.119-.969,5.815a.969.969,0,0,0,1.425.969l4.943-2.646,4.923,2.723a.975.975,0,0,0,1.434-1.008l-.969-5.815,4.022-4.119a.969.969,0,0,0,.281-1Zm-9.682-4.08Z" transform="translate(-397.832 -322.686)" fill="#9fa6b3"/>
    <path id="Path_7156" data-name="Path 7156" d="M145.837,40.561c.127.2-.194-.3,0,0,3.662,1.81,4.323,6.868,4.264,8.725a10.4,10.4,0,0,1-1.969,5.786,8.638,8.638,0,0,0-4.43-4.286,4.676,4.676,0,0,0-.247-6.224,4.115,4.115,0,0,0-5.912,0,4.676,4.676,0,0,0-.247,6.224,8.648,8.648,0,0,0-4.409,4.331,10.518,10.518,0,0,1-1.954-5.625,18.144,18.144,0,0,0,5.9-9.832,9.189,9.189,0,0,1,9,.9l1.2-1.867a11.238,11.238,0,0,0-9.768-1.553c0-.54.075-1.125.075-1.642a18.5,18.5,0,0,0-5.018-12.743A16.647,16.647,0,0,0,120.216,17.5c-4.482-.017-11.72,2.935-14.795,9.191-.035.076.021-.112-.023,0l1.858,1.125c.115-.125-.148.155,0,0,1.952-3.579,6.7-8,12.96-8.066a14.544,14.544,0,0,1,10.222,4.268A16.111,16.111,0,0,1,135.122,34.5a16.311,16.311,0,0,1-3.387,11.022,12.217,12.217,0,0,0-7.473-9.269,6.866,6.866,0,0,0,2.384-4.773,6.971,6.971,0,0,0-1.7-5.09,6.186,6.186,0,0,0-9.385,0,6.973,6.973,0,0,0-1.7,5.09,6.865,6.865,0,0,0,2.385,4.773,12.214,12.214,0,0,0-7.473,9.269,16.208,16.208,0,0,1-3.361-8.6c-.273-3.159,1.1-7.1,1.834-9.1L105.4,26.691h0a18.676,18.676,0,0,0-2.263,8.808,11.819,11.819,0,0,0,.075,1.642,11.239,11.239,0,0,0-9.768,1.553l1.153,1.867a9.189,9.189,0,0,1,8.978-.889A18.131,18.131,0,0,0,109.54,49.5a10.463,10.463,0,0,1-1.954,5.625,8.644,8.644,0,0,0-4.452-4.342,4.676,4.676,0,0,0-.247-6.224,4.115,4.115,0,0,0-5.912,0,4.676,4.676,0,0,0-.247,6.224,8.648,8.648,0,0,0-4.409,4.331,10.479,10.479,0,0,1-2-6.12c-.013-2,.841-6.423,4.27-8.437l-1.153-1.867c-4.985,2.787-5.813,10.479-4.749,14.061a12.136,12.136,0,0,0,6.931,7.83,11.214,11.214,0,0,0,10.134-.8,12.4,12.4,0,0,0,5.748-8.83,16.165,16.165,0,0,0,17.4,0,12.4,12.4,0,0,0,5.747,8.83,11.214,11.214,0,0,0,10.134.8,12.136,12.136,0,0,0,6.931-7.83c1.064-3.583,1.189-9.346-4.685-14.061ZM97.8,47.874a2.313,2.313,0,0,1,.625-1.591,2.059,2.059,0,0,1,3.02,0,2.337,2.337,0,0,1,0,3.182,2.059,2.059,0,0,1-3.02,0A2.313,2.313,0,0,1,97.8,47.874Zm-3.875,9A6.613,6.613,0,0,1,97.4,53.006a6.107,6.107,0,0,1,5.058,0,6.613,6.613,0,0,1,3.481,3.867,9.148,9.148,0,0,1-12.02,0ZM115.946,31a4.627,4.627,0,0,1,1.251-3.182,4.119,4.119,0,0,1,6.039,0,4.673,4.673,0,0,1,0,6.364,4.119,4.119,0,0,1-6.039,0A4.627,4.627,0,0,1,115.946,31Zm-5.338,16.559a10.235,10.235,0,0,1,4.8-8.768,9.184,9.184,0,0,1,9.608,0,10.235,10.235,0,0,1,4.8,8.768,14.367,14.367,0,0,1-19.216,0Zm27.756.315a2.313,2.313,0,0,1,.625-1.591,2.059,2.059,0,0,1,3.02,0,2.337,2.337,0,0,1,0,3.182,2.059,2.059,0,0,1-3.02,0A2.313,2.313,0,0,1,138.365,47.873Zm-3.875,9a6.613,6.613,0,0,1,3.481-3.867,6.107,6.107,0,0,1,5.058,0,6.613,6.613,0,0,1,3.481,3.867,9.148,9.148,0,0,1-12.02,0Z" transform="translate(-88.184 -17.5)" fill="#9fa6b3"/>
  </g>
</svg>
