<svg xmlns="http://www.w3.org/2000/svg" width="64" height="64.063" viewBox="0 0 64 64.063">
  <g id="noun-expert-5577986" transform="translate(-697.316 -795.572)">
    <path id="Path_7150" data-name="Path 7150" d="M215.284,180.178a84.549,84.549,0,0,1,10.727.688,17.361,17.361,0,0,0,1.6-1.422c-1.892-2.355-4.81-5.049-7.985-5.049h-8.675c-3.175,0-6.109,2.694-7.985,5.049a17.163,17.163,0,0,0,1.587,1.422A81.817,81.817,0,0,1,215.284,180.178Zm13.565,1.116c5.147.872-32.952,1.055-28.158.184l1.01-.183a18.323,18.323,0,0,1-4.458-6.683A17.835,17.835,0,0,1,204.893,153a19.826,19.826,0,0,1,14.367-2.508.24.24,0,0,1,.112.031,19.085,19.085,0,0,1,11.994,7.952A17.561,17.561,0,0,1,234,172.24a17.82,17.82,0,0,1-5.147,9.053Zm-27.339-3.533c2.085-2.4,5.1-5.186,8.4-5.462a8.934,8.934,0,0,1-1.427-14.115,9.963,9.963,0,0,1,13.629,0,8.934,8.934,0,0,1-1.427,14.115c3.3.275,6.3,3.061,8.4,5.462a15.674,15.674,0,0,0,2.758-5.964,15.472,15.472,0,0,0-2.309-12.158,16.937,16.937,0,0,0-10.647-7.035,17.551,17.551,0,0,0-12.747,2.2,15.7,15.7,0,0,0-4.634,22.954Zm13.774-20.127a7.058,7.058,0,1,0,7.392,7.05A7.219,7.219,0,0,0,215.284,157.634Z" transform="translate(513.461 657.987)" fill="#9fa6b3"/>
    <g id="noun-expert-5577938" transform="translate(697.316 795.572)">
      <path id="Path_7151" data-name="Path 7151" d="M178.176,108.531l-1.341,5.631a1.156,1.156,0,0,1-.609.826l-4.89,2.69a38.571,38.571,0,0,1,4.449,1.5,42.669,42.669,0,0,1,5.2,2.5l-1.721-6.976a1.346,1.346,0,0,1,.655-1.576l4.4-1.749c-.594-.327-1.234-.634-1.874-.961-1.371-.653-2.818-1.288-4.266-1.883Zm-5.1,5.438c-1.1-.423-2.224-.826-3.367-1.191l-.472,3.305Zm-38.162-1.191c-1.143.365-2.27.769-3.367,1.191l3.854,2.114Zm-6.52,2.21a1.2,1.2,0,0,1-.594-.769.083.083,0,0,1-.015-.058l-1.341-5.631c-1.463.6-2.91,1.211-4.25,1.883-.655.307-1.28.634-1.874.961l4.4,1.749a1.338,1.338,0,0,1,.655,1.576l-1.721,6.976a42.461,42.461,0,0,1,9.644-4Zm37.553-17.257a59.078,59.078,0,0,0-27.27,0,54.942,54.942,0,0,0-11.685,4.247l2.422,10.185a55.6,55.6,0,0,1,10.573-3.305,60.516,60.516,0,0,1,24.649,0,57.034,57.034,0,0,1,10.573,3.305l2.422-10.185a54.947,54.947,0,0,0-11.685-4.247Z" transform="translate(-120.316 -57.613)" fill="#9fa6b3"/>
      <path id="Path_7152" data-name="Path 7152" d="M132.2,50.559l1.38,2.945,3.238.409a.919.919,0,0,1,.8,1.028.99.99,0,0,1-.324.606l-2.337,2.212.605,3.212a.923.923,0,0,1-1.352.986l-2.858-1.578L128.5,61.957a.922.922,0,0,1-1.253-.366.875.875,0,0,1-.1-.62l.62-3.212-2.379-2.24a.932.932,0,0,1-.042-1.31.9.9,0,0,1,.563-.282l3.238-.409,1.394-2.945a.922.922,0,0,1,1.225-.451,1.086,1.086,0,0,1,.436.437Zm36.932,0,1.394,2.945,3.238.409a.921.921,0,0,1,.479,1.634L171.9,57.758l.62,3.212a.923.923,0,0,1-1.352.986l-2.858-1.578-2.858,1.578a.922.922,0,0,1-1.253-.366.876.876,0,0,1-.1-.62l.62-3.212-2.38-2.24a.945.945,0,0,1-.042-1.31.9.9,0,0,1,.563-.282l3.238-.409,1.38-2.945a.922.922,0,0,1,1.225-.451.974.974,0,0,1,.422.437Zm-18.473-5.791,1.38,2.945,3.238.409a.919.919,0,0,1,.8,1.028.99.99,0,0,1-.324.606l-2.337,2.2.62,3.212a.923.923,0,0,1-1.352.986l-2.858-1.578-2.858,1.578a.922.922,0,0,1-1.253-.366.875.875,0,0,1-.1-.62l.62-3.212-2.379-2.24a.932.932,0,0,1-.042-1.31.9.9,0,0,1,.563-.282l3.238-.409,1.394-2.945a.922.922,0,0,1,1.225-.451.939.939,0,0,1,.422.451Z" transform="translate(-118.22 -44.233)" fill="#9fa6b3"/>
      <text id="_2003" data-name=" 2003" transform="translate(31.001 48.714)" fill="#fff" font-size="10" font-family="Montserrat-Medium, Montserrat" font-weight="500"><tspan x="-13" y="0" xml:space="preserve"> 2003</tspan></text>
    </g>
  </g>
</svg>
