<svg xmlns="http://www.w3.org/2000/svg" width="62" height="64" viewBox="0 0 62 64">
  <g id="noun-expert-5397260" transform="translate(-2)">
    <path id="Path_7149" data-name="Path 7149" d="M169.384,53.665q-.275-.052-.549-.094a16.175,16.175,0,0,0-2.325-.168H152.137c-3.435.007-4.727,1.13-7.156,3.124a9.807,9.807,0,0,0-3.805,7.516V77.034h7.29V66.171a1.074,1.074,0,0,1,2.107,0V77.034h12.173c-.112-.487-.163.527-.153.032a3.2,3.2,0,0,0-.2-1.384,4.47,4.47,0,0,0-1.2-.98,4.243,4.243,0,0,1-2.006-2.1A3.49,3.49,0,0,1,159.825,70a3.7,3.7,0,0,0,.554-1.434,3.714,3.714,0,0,0-.554-1.436,3.48,3.48,0,0,1-.639-2.607,4.273,4.273,0,0,1,2.006-2.1,4.471,4.471,0,0,0,1.2-.982,3.208,3.208,0,0,0,.2-1.384,3.4,3.4,0,0,1,.749-2.531,5.171,5.171,0,0,1,2.844-1.146,5.18,5.18,0,0,0,1.581-.458,3.767,3.767,0,0,0,.886-1.164,8.492,8.492,0,0,1,.729-1.094Zm11.675,9.29,1.767,3.086,4.126.426a1.016,1.016,0,0,1,.876.615.775.775,0,0,1-.335.905l-2.985,2.3.784,3.356a.89.89,0,0,1-.835,1.009,1.242,1.242,0,0,1-.7-.091l-3.645-1.646-3.646,1.641a1.241,1.241,0,0,1-1.124-.058.794.794,0,0,1-.412-.861l.783-3.352-3.035-2.336a.762.762,0,0,1-.279-.9,1.025,1.025,0,0,1,.87-.587l4.126-.426,1.767-3.087a1.155,1.155,0,0,1,1.9,0Zm-.95-5.117a14.219,14.219,0,0,1,10.354,4.2,9.239,9.239,0,0,1,2.248,9.3,11.705,11.705,0,0,1-7.617,7.124,15.606,15.606,0,0,1-11.523-.622,10.891,10.891,0,0,1-6.414-7.882,9.626,9.626,0,0,1,3.712-8.975,14.586,14.586,0,0,1,9.24-3.139Zm7.749,4.362h0a12.5,12.5,0,0,0-9.18-2.558,11.274,11.274,0,0,0-8.06,4.421,7.589,7.589,0,0,0-.633,7.94,10.55,10.55,0,0,0,7.289,5.246,12.891,12.891,0,0,0,9.508-1.553,8.549,8.549,0,0,0,4.287-7.137,8.239,8.239,0,0,0-3.21-6.361Zm7.4,18.265,5.1,7.242a.741.741,0,0,1-.043,1,1.2,1.2,0,0,1-1.167.3l-5.906-1.647-1.217,5.019a.979.979,0,0,1-.857.686,1.138,1.138,0,0,1-1.081-.42l-5.778-8.214a7.822,7.822,0,0,0-1.154.636,4.648,4.648,0,0,1-6.088,0,7.989,7.989,0,0,0-1.154-.636l-5.781,8.215a1.139,1.139,0,0,1-1.081.419.977.977,0,0,1-.856-.685l-1.214-5.019-5.91,1.647a1.121,1.121,0,0,1-1.328-.542.726.726,0,0,1,.124-.759l5.092-7.242h0a3.217,3.217,0,0,1-1.527-.613,2.158,2.158,0,0,1-.546-1.338l-22.76.245a.973.973,0,0,1-1.053-.865V64.041a11.4,11.4,0,0,1,4.424-8.734c2.823-2.317,4.649-3.623,8.641-3.632h14.374a18.2,18.2,0,0,1,2.7.2,17.8,17.8,0,0,1,2.592.59,9.522,9.522,0,0,1,2.045.192,5.617,5.617,0,0,0,1.741.13,5.173,5.173,0,0,0,1.478-.734,4.639,4.639,0,0,1,6.088,0,5.117,5.117,0,0,0,1.478.734,5.642,5.642,0,0,0,1.74-.132,5.793,5.793,0,0,1,3.185.053,4.188,4.188,0,0,1,2.006,2.044,3.7,3.7,0,0,0,.885,1.164,5.148,5.148,0,0,0,1.581.458,5.172,5.172,0,0,1,2.844,1.146,3.378,3.378,0,0,1,.746,2.53,3.164,3.164,0,0,0,.209,1.384,4.372,4.372,0,0,0,1.2.979,4.28,4.28,0,0,1,2.006,2.1,3.506,3.506,0,0,1-.639,2.607,3.637,3.637,0,0,0-.553,1.436,3.625,3.625,0,0,0,.553,1.433,3.511,3.511,0,0,1,.639,2.607c-.358.866-2.879,2.7-3.2,3.079a3.165,3.165,0,0,0-.209,1.384,3.376,3.376,0,0,1-.746,2.53,3.528,3.528,0,0,1-1.612.871Zm-21.846,4.065h0C172.5,84.744,166.866,84.6,173.414,84.531Zm8.474-31.1h0a2.4,2.4,0,0,0-3.556,0,6.74,6.74,0,0,1-2.265,1.042,7.385,7.385,0,0,1-2.628-.126,4.324,4.324,0,0,0-1.857-.087c-.383.153-.711.705-1.034,1.255a4.921,4.921,0,0,1-1.465,1.751,6.532,6.532,0,0,1-2.41.793,3.989,3.989,0,0,0-1.695.548,2.428,2.428,0,0,0-.29,1.475,4.06,4.06,0,0,1-.421,2.114,5.426,5.426,0,0,1-1.751,1.559c-.587.4-1.179.793-1.285,1.153h0a2.7,2.7,0,0,0,.514,1.531,4.623,4.623,0,0,1,.737,2.121,4.617,4.617,0,0,1-.737,2.122,2.687,2.687,0,0,0-.514,1.528c.106.367.7.762,1.285,1.153h0a5.466,5.466,0,0,1,1.751,1.562,4.047,4.047,0,0,1,.421,2.111,2.437,2.437,0,0,0,.29,1.478,3.934,3.934,0,0,0,1.695.545,6.641,6.641,0,0,1,2.41.793,4.934,4.934,0,0,1,1.465,1.755c.323.549.652,1.1,1.034,1.255a4.4,4.4,0,0,0,1.857-.091,7.491,7.491,0,0,1,2.628-.122,6.735,6.735,0,0,1,2.265,1.038,2.39,2.39,0,0,0,3.556,0,6.8,6.8,0,0,1,2.27-1.038,7.488,7.488,0,0,1,2.627.122,4.4,4.4,0,0,0,1.857.091c.379-.153.707-.705,1.035-1.255a3.727,3.727,0,0,1,1.465-1.758,5.033,5.033,0,0,1,2.409-.79,3.942,3.942,0,0,0,1.7-.545,2.423,2.423,0,0,0,.285-1.479,4.117,4.117,0,0,1,.421-2.111,5.517,5.517,0,0,1,1.756-1.562c.587-.392,1.179-.787,1.286-1.153a2.678,2.678,0,0,0-.52-1.528,4.666,4.666,0,0,1-.732-2.121,4.679,4.679,0,0,1,.732-2.122,2.686,2.686,0,0,0,.52-1.531c-.107-.36-.7-.758-1.286-1.153a5.469,5.469,0,0,1-1.756-1.558,4.132,4.132,0,0,1-.421-2.115,2.411,2.411,0,0,0-.285-1.475,3.984,3.984,0,0,0-1.7-.548,6.57,6.57,0,0,1-2.414-.793,4.89,4.89,0,0,1-1.46-1.751c-.328-.549-.656-1.1-1.035-1.255a4.323,4.323,0,0,0-1.857.087,7.394,7.394,0,0,1-2.627.125,6.786,6.786,0,0,1-2.27-1.041ZM160.45,29.08a11.123,11.123,0,0,1,7.622,2.6,8.859,8.859,0,0,1,2.756,6.8c.049,2.794-.979,4.859-3,7.1a10.407,10.407,0,0,1-15.276,0c-2.02-2.248-3.129-4.312-3.081-7.1a8.544,8.544,0,0,1,2.985-6.753,12.226,12.226,0,0,1,8-2.649Zm6.058,3.747h0a8.847,8.847,0,0,0-6.057-2.018,9.92,9.92,0,0,0-6.478,2.1,7.013,7.013,0,0,0-2.4,5.568c-.051,2.412.9,4.107,2.639,6.053a8.034,8.034,0,0,0,11.956,0c1.735-1.946,2.6-3.641,2.551-6.053a7.348,7.348,0,0,0-2.214-5.656Z" transform="translate(-137.07 -29.076)" fill="#9fa6b3"/>
  </g>
</svg>
