<svg xmlns="http://www.w3.org/2000/svg" width="64" height="64" viewBox="0 0 64 64">
  <path id="Path_1674" data-name="Path 1674" d="M703.8,697.029a1.956,1.956,0,0,0-.574-.952,2.261,2.261,0,0,1-.278-3.095c.585-.96.592-1.324-.283-2.048a2.369,2.369,0,0,1-1.05-1.4,2.755,2.755,0,0,1,.316-1.937c.279-.815.167-1.136-.562-1.595-.531-.334-1.1-.511-1.425-1.306a2.526,2.526,0,0,1-.027-1.845c.205-1.041-.031-1.321-1.016-1.686a2.294,2.294,0,0,1-1.4-.967,2.324,2.324,0,0,1-.334-1.684c.052-1.056-.115-1.388-1.157-1.605a2.463,2.463,0,0,1-1.651-.747,2.385,2.385,0,0,1-.61-1.65c-.128-1.061-.384-1.316-1.452-1.351a2.381,2.381,0,0,1-1.7-.464,2.662,2.662,0,0,1-.92-1.684c-.3-.92-.63-1.064-1.585-.94a2.411,2.411,0,0,1-1.772-.176c-.839-.423-.912-1.078-1.278-1.682-.406-.672-.727-.742-1.488-.534a2.655,2.655,0,0,1-1.911.157c-.816-.255-1.042-.8-1.419-1.3-.572-.757-.925-.8-1.775-.381a2.451,2.451,0,0,1-1.757.42c-.854-.119-1.165-.63-1.625-1.063a1.1,1.1,0,0,0-1.712-.134,1.977,1.977,0,0,1-3.118,0,1.1,1.1,0,0,0-1.712.134c-.46.433-.771.944-1.626,1.063a2.45,2.45,0,0,1-1.756-.42c-.85-.416-1.2-.376-1.775.381-.376.5-.6,1.046-1.419,1.3a2.655,2.655,0,0,1-1.911-.157c-.761-.207-1.082-.138-1.488.534-.365.6-.439,1.259-1.278,1.682a2.411,2.411,0,0,1-1.772.176c-.955-.124-1.284.02-1.585.94A2.662,2.662,0,0,1,653,672.7a2.38,2.38,0,0,1-1.7.464c-1.068.035-1.324.29-1.452,1.351a2.385,2.385,0,0,1-.61,1.65,2.463,2.463,0,0,1-1.651.747c-1.043.218-1.21.549-1.157,1.605a2.324,2.324,0,0,1-.334,1.684,2.293,2.293,0,0,1-1.4.967c-.985.365-1.221.645-1.016,1.686a2.527,2.527,0,0,1-.027,1.845c-.327.8-.894.971-1.425,1.306-.729.459-.841.78-.562,1.595a2.758,2.758,0,0,1,.316,1.937,2.372,2.372,0,0,1-1.05,1.4c-.875.723-.868,1.088-.283,2.048a2.261,2.261,0,0,1-.278,3.095,1.077,1.077,0,0,0,0,1.9,2.261,2.261,0,0,1,.278,3.095c-.585.96-.592,1.324.283,2.048a2.372,2.372,0,0,1,1.05,1.4,2.758,2.758,0,0,1-.316,1.937c-.279.815-.167,1.135.562,1.6.53.334,1.1.511,1.425,1.306a2.527,2.527,0,0,1,.027,1.845c-.205,1.041.03,1.321,1.016,1.686a2.293,2.293,0,0,1,1.4.967,2.324,2.324,0,0,1,.334,1.684c-.053,1.056.114,1.387,1.157,1.6a2.464,2.464,0,0,1,1.651.748,2.385,2.385,0,0,1,.61,1.65c.128,1.061.384,1.316,1.452,1.351a2.38,2.38,0,0,1,1.7.464,2.664,2.664,0,0,1,.92,1.684c.3.92.63,1.065,1.585.941a2.408,2.408,0,0,1,1.772.176c.839.423.913,1.078,1.278,1.682.406.672.727.742,1.488.534a2.655,2.655,0,0,1,1.911-.157c.816.255,1.043.8,1.419,1.3.572.757.926.8,1.775.381a2.452,2.452,0,0,1,1.756-.42c.854.119,1.166.63,1.626,1.063a1.1,1.1,0,0,0,1.712.134,1.977,1.977,0,0,1,3.118,0,1.1,1.1,0,0,0,1.712-.134c.46-.432.771-.944,1.625-1.063a2.453,2.453,0,0,1,1.757.42c.85.416,1.2.376,1.775-.381.376-.5.6-1.046,1.419-1.3a2.655,2.655,0,0,1,1.911.157c.761.207,1.083.138,1.488-.534.366-.6.439-1.259,1.278-1.682a2.409,2.409,0,0,1,1.772-.176c.955.124,1.284-.021,1.585-.941a2.663,2.663,0,0,1,.92-1.684,2.381,2.381,0,0,1,1.7-.464c1.068-.035,1.324-.29,1.452-1.351a2.385,2.385,0,0,1,.61-1.65,2.464,2.464,0,0,1,1.651-.748c1.043-.217,1.21-.549,1.157-1.6a2.324,2.324,0,0,1,.334-1.684,2.294,2.294,0,0,1,1.4-.967c.985-.365,1.221-.645,1.016-1.686a2.526,2.526,0,0,1,.027-1.845c.327-.795.894-.971,1.425-1.306.729-.46.841-.78.562-1.6a2.755,2.755,0,0,1-.316-1.937,2.37,2.37,0,0,1,1.05-1.4c.875-.723.868-1.088.283-2.048a2.261,2.261,0,0,1,.278-3.095,1.956,1.956,0,0,0,.574-.952m-59.963,4.783h2.526v-9.566h-2.526Zm7.666.176c2.379,0,3.73-1.442,3.73-3.061a2.629,2.629,0,0,0-1.865-2.62l-1.16-.456c-.866-.339-1.41-.5-1.41-.957,0-.427.382-.648,1-.648a3.141,3.141,0,0,1,1.909.692l1.263-1.589a4.584,4.584,0,0,0-3.172-1.281c-2.085,0-3.554,1.34-3.554,2.973a2.826,2.826,0,0,0,1.924,2.664l1.19.5c.808.324,1.292.471,1.292.927,0,.427-.323.677-1.087.677a3.874,3.874,0,0,1-2.232-.927l-1.44,1.737a5.523,5.523,0,0,0,3.613,1.369m9.282,0c2.644,0,4.435-1.854,4.435-5s-1.792-4.916-4.435-4.916-4.435,1.766-4.435,4.916,1.792,5,4.435,5m0-2.178c-1.146,0-1.85-1.089-1.85-2.826s.7-2.737,1.85-2.737,1.85,1,1.85,2.737-.7,2.826-1.85,2.826m11.808-3.208c-.529,0-1.028-.221-1.028-1.119,0-.986.47-1.295,1-1.295.455,0,1.014.309,1.219,1.619a1.34,1.34,0,0,1-1.189.795m-.293,5.386c2,0,3.848-1.619,3.848-5s-1.851-4.68-3.642-4.68a3.07,3.07,0,0,0-3.231,3.179,2.611,2.611,0,0,0,2.82,2.885,2.442,2.442,0,0,0,1.748-.927c-.088,1.884-.793,2.517-1.718,2.517a2.116,2.116,0,0,1-1.41-.648l-1.322,1.5a4.038,4.038,0,0,0,2.908,1.177m8.4,0c2.056,0,3.466-1.693,3.466-4.886s-1.41-4.8-3.466-4.8-3.466,1.6-3.466,4.8,1.41,4.886,3.466,4.886m0-1.943c-.587,0-1.087-.471-1.087-2.943s.5-2.855,1.087-2.855,1.087.383,1.087,2.855-.5,2.943-1.087,2.943m7.931,1.943c2.056,0,3.466-1.693,3.466-4.886s-1.41-4.8-3.466-4.8-3.466,1.6-3.466,4.8,1.41,4.886,3.466,4.886m0-1.943c-.588,0-1.087-.471-1.087-2.943s.5-2.855,1.087-2.855,1.087.383,1.087,2.855-.5,2.943-1.087,2.943m4.935,1.766h6.2v-2.031h-1.674v-7.3h-1.851a6.6,6.6,0,0,1-2.438.912v1.56h1.762v4.827h-2ZM671.8,685.657l.385,1.2,1.255,0-1.016.737.39,1.195-1.013-.741-1.013.741.39-1.195-1.016-.737,1.254,0Zm0,18.756.385,1.2,1.255,0-1.016.737.39,1.195L671.8,706.8l-1.013.741.39-1.195-1.016-.737,1.254,0Zm3.8,0,.385,1.2,1.255,0-1.016.737.39,1.195L675.6,706.8l-1.014.741.39-1.195-1.016-.737,1.255,0Zm3.8,0,.385,1.2,1.254,0-1.016.737.39,1.195-1.014-.741-1.014.741.39-1.195-1.016-.737,1.254,0Zm-11.413,0,.386,1.2,1.254,0-1.016.737.39,1.195-1.014-.741-1.013.741.39-1.195-1.016-.737,1.255,0Zm-3.8,0,.385,1.2,1.254,0-1.016.737.39,1.195-1.014-.741-1.013.741.39-1.195-1.016-.737,1.255,0ZM675.6,685.657l.385,1.2,1.255,0-1.016.737.39,1.195-1.013-.741-1.014.741.39-1.195-1.016-.737,1.255,0Zm3.8,0,.385,1.2,1.254,0-1.016.737.39,1.195-1.014-.741-1.014.741.39-1.195-1.016-.737,1.254,0Zm-11.413,0,.386,1.2,1.254,0-1.016.737.39,1.195-1.014-.741-1.013.741.39-1.195-1.016-.737,1.255,0Zm-3.8,0,.385,1.2,1.254,0-1.016.737.39,1.195-1.014-.741-1.013.741.39-1.195-1.016-.737,1.255,0Zm-20.01,1.918h2.25q.318-.838.689-1.648l-.588-1.154.026.015a.275.275,0,1,0-.124-.369.278.278,0,0,0-.028.106l-.485-.952.485.952a.276.276,0,0,0,.126.247l.588,1.155a27.131,27.131,0,0,1,49.359,0l.5-.975a.275.275,0,0,0,.257-.4.293.293,0,0,0-.031-.049l.476-.935-.476.935a.275.275,0,1,0-.226.445l-.5.974q.371.81.689,1.648h2.25a29.25,29.25,0,0,0-55.237,0m3.489,0h10.451a16.6,16.6,0,0,1,27.357,0h10.451a25.979,25.979,0,0,0-48.259,0M699.7,705.621h-2.225a26.917,26.917,0,0,1-1,2.511l.588,1.154-.026-.015a.275.275,0,1,0,.124.369.278.278,0,0,0,.028-.106l.485.952-.485-.952a.276.276,0,0,0-.126-.247l-.588-1.155a27.132,27.132,0,0,1-49.359,0l-.5.975a.275.275,0,0,0-.226.445l-.476.935.476-.935a.275.275,0,1,0,.226-.445l.5-.974a26.917,26.917,0,0,1-1-2.511h-2.225a29.249,29.249,0,0,0,55.809,0m-3.448,0H686.033a16.6,16.6,0,0,1-28.47,0H647.341a25.979,25.979,0,0,0,48.913,0m-9.426-32.638a.275.275,0,1,1-.378.087.276.276,0,0,1,.378-.087m.772.5a.275.275,0,1,1-.381.075.275.275,0,0,1,.381-.075m-8.352-3.83a.275.275,0,1,1-.337.193.275.275,0,0,1,.337-.193m-7.324-1a.275.275,0,1,1-.276.274.275.275,0,0,1,.276-.274m-7.332.934a.275.275,0,1,1-.2.336.274.274,0,0,1,.2-.336m-6.842,2.8a.275.275,0,1,1-.1.375.274.274,0,0,1,.1-.375m-5.885,4.483a.275.275,0,1,1,0,.389.274.274,0,0,1,0-.389m-4.526,5.856a.275.275,0,1,1,.1.376.274.274,0,0,1-.1-.376m-.126,28.374a.274.274,0,1,1,.374.1.275.275,0,0,1-.374-.1m4.474,5.9a.275.275,0,1,1,.388,0,.275.275,0,0,1-.388,0m5.844,4.535a.275.275,0,1,1,.375-.1.275.275,0,0,1-.375.1m6.816,2.865a.275.275,0,1,1,.337-.193.275.275,0,0,1-.337.193m7.324,1a.275.275,0,1,1,.276-.273.274.274,0,0,1-.276.273m7.333-.934a.275.275,0,1,1,.2-.336.274.274,0,0,1-.2.336m6.842-2.8a.275.275,0,1,1,.1-.375.274.274,0,0,1-.1.375m5.885-4.483a.275.275,0,1,1,0-.389.274.274,0,0,1,0,.389m4.526-5.857a.274.274,0,1,1-.1-.376.274.274,0,0,1,.1.376m.127-28.374a.274.274,0,1,1-.374-.1.275.275,0,0,1,.374.1m-4.474-5.9a.275.275,0,1,1-.388,0,.276.276,0,0,1,.388,0m-5.844-4.535a.275.275,0,1,1-.375.1.275.275,0,0,1,.375-.1m-1.683-.909a.275.275,0,1,1-.368.124.275.275,0,0,1,.368-.124m-6.994-2.4a.275.275,0,1,1-.323.215.274.274,0,0,1,.323-.215m-7.375-.5a.275.275,0,1,1-.257.292.274.274,0,0,1,.257-.292m-7.253,1.428a.275.275,0,1,1-.172.348.274.274,0,0,1,.172-.348m-6.637,3.26a.275.275,0,1,1-.077.381.274.274,0,0,1,.077-.381m-5.569,4.871a.275.275,0,1,1,.025.388.274.274,0,0,1-.025-.388m-5.59,27.816a.275.275,0,1,1,.348.173.275.275,0,0,1-.348-.173m3.254,6.651a.275.275,0,1,1,.38.076.275.275,0,0,1-.38-.076m4.86,5.58a.275.275,0,1,1,.387-.024.275.275,0,0,1-.387.024m6.136,4.13a.275.275,0,1,1,.368-.124.275.275,0,0,1-.368.124m6.994,2.4a.275.275,0,1,1,.323-.215.275.275,0,0,1-.323.215m7.375.5a.275.275,0,1,1,.256-.292.275.275,0,0,1-.256.292m7.253-1.428a.275.275,0,1,1,.173-.348.274.274,0,0,1-.173.348m6.637-3.26a.275.275,0,1,1,.076-.381.274.274,0,0,1-.076.381m5.569-4.871a.275.275,0,1,1-.024-.388.274.274,0,0,1,.024.388m2.337-34.467a.275.275,0,1,1-.38-.077.275.275,0,0,1,.38.077m-4.861-5.58a.275.275,0,1,1-.387.024.275.275,0,0,1,.387-.024m-7.806-4.894a.275.275,0,1,1-.359.148.275.275,0,0,1,.359-.148m-7.134-1.938a.275.275,0,1,1-.309.236.275.275,0,0,1,.309-.236m-7.392-.022a.275.275,0,1,1-.237.307.274.274,0,0,1,.237-.307m-7.146,1.9a.275.275,0,1,1-.149.359.274.274,0,0,1,.149-.359m-6.413,3.685a.275.275,0,1,1-.052.385.274.274,0,0,1,.052-.385m-5.242,5.222a.275.275,0,1,1,.05.386.274.274,0,0,1-.05-.386m-3.715,6.4a.275.275,0,1,1,.147.36.274.274,0,0,1-.147-.36m-.064,21.716a.275.275,0,1,1,.358.15.275.275,0,0,1-.358-.15m3.677,6.426a.275.275,0,1,1,.385.052.275.275,0,0,1-.385-.052m5.211,5.253a.275.275,0,1,1,.385-.05.275.275,0,0,1-.385.05m6.391,3.723a.275.275,0,1,1,.359-.148.275.275,0,0,1-.359.148m7.134,1.938a.275.275,0,1,1,.308-.235.275.275,0,0,1-.308.235m7.392.022a.275.275,0,1,1,.237-.308.275.275,0,0,1-.237.308m7.145-1.9a.275.275,0,1,1,.15-.359.274.274,0,0,1-.15.359m6.412-3.685a.275.275,0,1,1,.052-.385.274.274,0,0,1-.052.385m5.242-5.222a.275.275,0,1,1-.049-.386.275.275,0,0,1,.049.386m3.715-6.4a.275.275,0,1,1-.148-.36.274.274,0,0,1,.148.36m.064-21.717a.275.275,0,1,1-.358-.15.275.275,0,0,1,.358.15m-3.677-6.426a.275.275,0,1,1-.385-.052.276.276,0,0,1,.385.052M689.1,674.57a.275.275,0,1,1-.385.05.275.275,0,0,1,.385-.05m-8.12-4.381a.275.275,0,1,1-.349.171.275.275,0,0,1,.349-.171m-7.245-1.467a.275.275,0,1,1-.293.255.274.274,0,0,1,.293-.255m-7.378.462a.275.275,0,1,1-.216.323.274.274,0,0,1,.216-.323m-7.007,2.36a.275.275,0,1,1-.126.368.274.274,0,0,1,.126-.368m-6.158,4.1a.275.275,0,1,1-.027.388.273.273,0,0,1,.027-.388m-4.891,5.554a.275.275,0,1,1,.075.382.274.274,0,0,1-.075-.382m2.15,34.479a.274.274,0,1,1,.387.027.275.275,0,0,1-.387-.027m5.542,4.9a.275.275,0,1,1,.381-.075.275.275,0,0,1-.381.075m6.62,3.3a.275.275,0,1,1,.349-.171.276.276,0,0,1-.349.171m7.245,1.467a.275.275,0,1,1,.293-.255.274.274,0,0,1-.293.255m7.377-.462a.275.275,0,1,1,.217-.323.274.274,0,0,1-.217.323m7.007-2.36a.275.275,0,1,1,.126-.367.274.274,0,0,1-.126.367m6.159-4.1a.275.275,0,1,1,.026-.388.273.273,0,0,1-.026.388m4.891-5.554a.275.275,0,1,1-.074-.382.274.274,0,0,1,.074.382m3.289-6.633a.274.274,0,1,1-.171-.349.274.274,0,0,1,.171.349m-5.439-27.846a.275.275,0,1,1-.387-.027.275.275,0,0,1,.387.027m-14.787-8.959a.275.275,0,1,1-.331.2.275.275,0,0,1,.331-.2m-7.353-.76a.275.275,0,1,1-.267.283.274.274,0,0,1,.267-.283m-7.3,1.172a.275.275,0,1,1-.185.342.274.274,0,0,1,.185-.342m-6.747,3.026a.275.275,0,1,1-.09.378.274.274,0,0,1,.09-.378m-5.736,4.672a.275.275,0,1,1,.011.389.274.274,0,0,1-.011-.389m-4.333,6a.275.275,0,1,1,.111.373.274.274,0,0,1-.111-.373m.795,28.363a.274.274,0,1,1,.377.09.275.275,0,0,1-.377-.09m4.663,5.748a.275.275,0,1,1,.388-.011.275.275,0,0,1-.388.011m5.988,4.342a.275.275,0,1,1,.372-.111.275.275,0,0,1-.372.111m6.906,2.641a.275.275,0,1,1,.331-.2.275.275,0,0,1-.331.2m7.353.76a.275.275,0,1,1,.267-.282.275.275,0,0,1-.267.282m7.3-1.172a.275.275,0,1,1,.185-.342.274.274,0,0,1-.185.342m6.747-3.026a.275.275,0,1,1,.09-.378.274.274,0,0,1-.09.378m5.736-4.672a.275.275,0,1,1-.011-.389.274.274,0,0,1,.011.389m4.334-6a.275.275,0,1,1-.111-.373.275.275,0,0,1,.111.373m-.8-28.363a.274.274,0,1,1-.377-.09.275.275,0,0,1,.377.09m-4.662-5.747a.275.275,0,1,1-.388.011.275.275,0,0,1,.388-.011m-5.988-4.343a.275.275,0,1,1-.372.111.275.275,0,0,1,.372-.111m-1.712-.854a.275.275,0,1,1-.363.136.275.275,0,0,1,.363-.136m-7.068-2.168a.275.275,0,1,1-.316.226.275.275,0,0,1,.316-.226m-7.387-.262a.275.275,0,1,1-.247.3.275.275,0,0,1,.247-.3m-7.2,1.664a.275.275,0,1,1-.161.354.274.274,0,0,1,.161-.354m-6.528,3.475a.275.275,0,1,1-.064.384.274.274,0,0,1,.064-.384m-5.408,5.049a.275.275,0,1,1,.037.387.274.274,0,0,1-.037-.387m-3.919,6.28a.274.274,0,1,1,.136.364.274.274,0,0,1-.136-.364m-.764,21.7a.274.274,0,1,1,.353.161.275.275,0,0,1-.353-.161m3.468,6.541a.275.275,0,1,1,.383.064.275.275,0,0,1-.383-.064m5.039,5.419a.275.275,0,1,1,.386-.037.275.275,0,0,1-.386.037m6.267,3.927a.275.275,0,1,1,.364-.136.275.275,0,0,1-.364.136m7.068,2.168a.275.275,0,1,1,.316-.225.275.275,0,0,1-.316.225m7.387.261a.275.275,0,1,1,.247-.3.275.275,0,0,1-.247.3m7.2-1.663a.275.275,0,1,1,.161-.354.274.274,0,0,1-.161.354m6.528-3.475a.275.275,0,1,1,.064-.384.274.274,0,0,1-.064.384m5.408-5.05a.275.275,0,1,1-.037-.387.274.274,0,0,1,.037.387m3.919-6.28a.275.275,0,1,1-.136-.364.274.274,0,0,1,.136.364m.764-21.7a.274.274,0,1,1-.353-.161.275.275,0,0,1,.353.161m-3.468-6.541a.274.274,0,1,1-.383-.064.275.275,0,0,1,.383.064m-5.039-5.419a.275.275,0,1,1-.386.037.275.275,0,0,1,.386-.037m-7.961-4.637a.275.275,0,1,1-.354.159.275.275,0,0,1,.354-.159m-7.194-1.7a.275.275,0,1,1-.3.246.275.275,0,0,1,.3-.246m-7.388.219a.275.275,0,1,1-.227.315.274.274,0,0,1,.227-.315m-7.08,2.128a.275.275,0,1,1-.138.363.274.274,0,0,1,.138-.363m-6.289,3.891a.275.275,0,1,1-.04.387.274.274,0,0,1,.04-.387m-5.07,5.39a.275.275,0,1,1,.062.384.274.274,0,0,1-.062-.384m-3.505,6.521a.274.274,0,1,1,.159.355.274.274,0,0,1-.159-.355m.641,21.707a.275.275,0,1,1,.363.138.275.275,0,0,1-.363-.138m3.884,6.3a.275.275,0,1,1,.386.039.275.275,0,0,1-.386-.039m5.379,5.08a.275.275,0,1,1,.383-.062.275.275,0,0,1-.383.062m6.508,3.512a.275.275,0,1,1,.354-.159.275.275,0,0,1-.354.159m7.193,1.7a.275.275,0,1,1,.3-.245.275.275,0,0,1-.3.245m7.388-.219a.275.275,0,1,1,.227-.315.274.274,0,0,1-.227.315m7.08-2.128a.275.275,0,1,1,.138-.363.274.274,0,0,1-.138.363m6.29-3.891a.275.275,0,1,1,.039-.387.274.274,0,0,1-.039.387m5.07-5.39a.275.275,0,1,1-.062-.384.273.273,0,0,1,.062.384m3.505-6.521a.275.275,0,1,1-.159-.355.275.275,0,0,1,.159.355m-.641-21.707a.274.274,0,1,1-.363-.138.275.275,0,0,1,.363.138m-3.884-6.3a.275.275,0,1,1-.386-.039.275.275,0,0,1,.386.039m-5.379-5.081a.275.275,0,1,1-.383.062.275.275,0,0,1,.383-.062M680.1,669.9a.275.275,0,1,1-.343.182.275.275,0,0,1,.343-.182m-7.289-1.23a.275.275,0,1,1-.284.265.275.275,0,0,1,.284-.265m-7.358.7a.275.275,0,1,1-.206.33.275.275,0,0,1,.206-.33m-6.927,2.587a.275.275,0,1,1-.114.372.274.274,0,0,1,.114-.372m-6.022,4.295a.275.275,0,1,1-.014.389.274.274,0,0,1,.014-.389m-4.708,5.711a.275.275,0,1,1,.087.379.273.273,0,0,1-.087-.379m-1.018,28.356a.274.274,0,1,1,.371.114.275.275,0,0,1-.371-.114m4.286,6.035a.275.275,0,1,1,.388.014.276.276,0,0,1-.388-.014m5.7,4.718a.275.275,0,1,1,.379-.087.275.275,0,0,1-.379.087m6.723,3.079a.275.275,0,1,1,.343-.182.275.275,0,0,1-.343.182m7.289,1.23a.275.275,0,1,1,.284-.265.275.275,0,0,1-.284.265m7.358-.7a.275.275,0,1,1,.206-.329.274.274,0,0,1-.206.329m6.926-2.587a.275.275,0,1,1,.114-.372.274.274,0,0,1-.114.372m6.022-4.3a.275.275,0,1,1,.014-.388.273.273,0,0,1-.014.388m4.708-5.71a.275.275,0,1,1-.087-.379.274.274,0,0,1,.087.379m1.018-28.355a.275.275,0,1,1-.371-.114.275.275,0,0,1,.371.114m-4.286-6.035a.274.274,0,1,1-.388-.014.275.275,0,0,1,.388.014m-37.352,35.99a1.837,1.837,0,0,0,1.452.61l.117-.938a1.09,1.09,0,0,1-.815-.323c-.385-.413-.308-1,.29-1.56.578-.542,1.224-.539,1.573-.165a1.065,1.065,0,0,1,.26.751L659,712a1.932,1.932,0,0,0-.5-1.388,2.125,2.125,0,0,0-3.116.027,2.035,2.035,0,0,0-.207,3.048m2.529,2.149,2.411,1.589.531-.809-1.447-.954.428-.652,1.189.783.531-.809-1.189-.783.376-.573,1.391.916.531-.809-2.355-1.552Zm4.3,2.535,1.067.44.557-1.356.41.169.139,1.643,1.192.491-.232-1.928a1.339,1.339,0,0,0,1.132-.9c.413-1.008-.209-1.613-1.078-1.971l-1.527-.629Zm1.971-1.762.408-1,.385.158c.422.174.6.378.457.726s-.443.443-.865.269Zm3.931,3.595,1.147.129.379-3.382,1.147.129.108-.962-3.442-.388-.108.962,1.147.13Zm4.2.3,1.153-.047-.179-4.368-1.153.047Zm3.379-.246,1.125-.26-.359-1.56,1.412-.327-.217-.944-1.413.327-.187-.813,1.648-.381-.218-.944-2.773.641Zm4.671-1.323,1.081-.407-1.536-4.092-1.081.407Zm3.089-1.385,2.442-1.54-.515-.82-1.466.924-.415-.66,1.2-.76-.515-.819-1.2.759-.365-.581,1.409-.888-.515-.82-2.385,1.5Zm4.1-2.866.942-.977a2.184,2.184,0,1,0-3.184-2.989l-.9.929Zm.136-1.477-1.805-1.748.047-.048c.438-.455.938-.663,1.672.047s.572,1.245.134,1.7Zm-29.659-29.042a1.846,1.846,0,0,0,.444-1.513l-.943-.012a1.091,1.091,0,0,1-.229.848c-.366.429-.957.418-1.58-.115-.6-.516-.671-1.159-.339-1.548a1.062,1.062,0,0,1,.716-.342l-.168-.941a1.926,1.926,0,0,0-1.32.656,2.135,2.135,0,0,0,.375,3.1,2.025,2.025,0,0,0,3.046-.133m1.849-1.908,2.343-1.688-.564-.787-1.406,1.013-.454-.633,1.155-.832-.564-.786-1.155.832-.4-.557,1.352-.974-.564-.786-2.289,1.649Zm3.637-2.4,1.076-.417-.527-1.367.413-.16,1.228,1.1,1.2-.465-1.492-1.239a1.343,1.343,0,0,0,.2-1.434c-.391-1.016-1.259-1.026-2.135-.687l-1.54.6Zm.22-2.638-.387-1,.388-.15c.426-.165.694-.139.83.212s-.018.627-.443.792Zm5.057.974,1.146-.139-.406-3.378,1.146-.139-.116-.962-3.438.416.115.962,1.146-.139Zm3.556-.248,1.154.037.138-4.37-1.154-.036Zm2.732.206,1.124.263.362-1.559,1.412.33.22-.943-1.412-.33.189-.812,1.647.385.22-.943-2.772-.648Zm4.046,1.161,1.054.472,1.781-3.99-1.054-.472Zm2.494,1.151,2.349,1.679.562-.788-1.41-1.008.452-.635,1.158.828.561-.788-1.158-.828.4-.559,1.355.969.561-.788-2.295-1.64Zm3.5,2.605.89,1.025a2.184,2.184,0,1,0,3.246-2.921l-.846-.974Zm1.456.263,1.893-1.652.044.051c.414.477.578.994-.191,1.665s-1.288.464-1.7-.013Z" transform="translate(-639.798 -665.029)" fill="#9fa6b3" fill-rule="evenodd" opacity="0.9"/>
</svg>
